<?xml version="1.0" standalone="no"?>
<!DOCTYPE svg PUBLIC "-//W3C//DTD SVG 20010904//EN"
 "http://www.w3.org/TR/2001/REC-SVG-20010904/DTD/svg10.dtd">
<svg version="1.0" xmlns="http://www.w3.org/2000/svg"
 width="128.000000pt" height="128.000000pt" viewBox="0 0 128.000000 128.000000"
 preserveAspectRatio="xMidYMid meet">
<metadata>
Created by potrace 1.14, written by Peter Selinger 2001-2017
</metadata>
<g transform="translate(0.000000,128.000000) scale(0.100000,-0.100000)"
fill="#000000" stroke="none">
<path d="M460 1165 c0 -6 6 -22 14 -37 14 -26 13 -27 -19 -38 -35 -12 -98 -67
-130 -115 -63 -96 -79 -161 -71 -294 10 -159 11 -171 22 -169 5 2 8 6 6 11 -1
4 2 7 8 7 5 0 23 -29 40 -64 33 -71 34 -73 73 -80 15 -2 42 -16 60 -30 45 -35
128 -76 139 -70 4 3 8 -7 8 -21 0 -14 -4 -24 -10 -20 -15 9 -60 -6 -60 -21 0
-7 -18 -18 -40 -24 -27 -7 -44 -20 -54 -38 -15 -30 -41 -113 -38 -124 1 -5 -2
-8 -8 -8 -5 0 -7 -7 -4 -15 5 -13 46 -15 285 -15 l278 0 10 38 c24 93 25 87
-17 121 -22 17 -44 31 -50 31 -5 0 -15 7 -22 15 -7 9 -15 13 -17 11 -3 -3 -17
6 -31 20 -15 13 -29 24 -32 24 -3 0 -6 9 -7 20 -1 12 11 27 35 42 20 12 54 38
74 57 53 50 67 62 74 60 9 -2 46 33 71 66 l22 30 2 -30 c2 -55 28 74 30 149 1
62 3 67 14 47 6 -13 11 -34 9 -47 -1 -13 2 -24 7 -24 8 0 15 60 9 85 -1 6 -3
24 -5 40 -4 40 -36 112 -80 180 -19 30 -35 58 -35 62 0 3 -16 25 -35 48 -31
39 -116 91 -163 100 -11 2 -35 7 -53 12 -39 11 -164 5 -164 -7 0 -1 -8 -3 -18
-5 -10 -2 -30 -11 -44 -21 -27 -17 -27 -17 -55 17 -15 18 -28 29 -28 24z"/>
</g>
</svg>
